<svg width="24" height="24" viewBox="0 0 24 24" fill="none" xmlns="http://www.w3.org/2000/svg">
<path d="M20.7286 11.4628C19.5829 12.407 18.1159 12.975 16.5188 12.975C15.966 12.975 15.4288 12.9069 14.9152 12.7789C15.8336 14.1775 16.3689 15.8492 16.3689 17.6439V20.2797C16.3689 21.2655 16.0089 22.1684 15.4145 22.8657H21.4141C22.84 22.8657 24 21.7057 24 20.2797V17.6439C24 15.0786 22.7019 12.811 20.7286 11.4628Z" fill="#6F727F"/>
<path d="M7.48134 11.5688C10.3607 11.5688 12.7031 9.22632 12.7031 6.34698C12.7031 3.46747 10.3607 1.125 7.48134 1.125C4.60201 1.125 2.25954 3.46747 2.25954 6.34698C2.25954 9.22632 4.60201 11.5688 7.48134 11.5688Z" fill="#6F727F"/>
<path d="M16.5186 11.5688C19.398 11.5688 21.7406 9.22632 21.7406 6.34698C21.7406 3.46747 19.398 1.125 16.5186 1.125C15.1258 1.125 13.8587 1.67322 12.9214 2.56512C13.6697 3.63849 14.1093 4.9422 14.1093 6.34698C14.1093 7.75159 13.6697 9.0553 12.9214 10.1287C13.8587 11.0206 15.1258 11.5688 16.5186 11.5688Z" fill="#6F727F"/>
<path d="M11.6911 11.4628C10.5456 12.407 9.07856 12.975 7.48133 12.975C5.8841 12.975 4.41706 12.4072 3.27137 11.4628C1.29804 12.811 3.8147e-06 15.0786 3.8147e-06 17.6439V20.2797C3.8147e-06 21.7057 1.15998 22.8657 2.586 22.8657H12.3765C13.8025 22.8657 14.9625 21.7057 14.9625 20.2797V17.6439C14.9625 15.0786 13.6646 12.811 11.6911 11.4628Z" fill="#6F727F"/>
</svg>
