<svg width="24" height="24" viewBox="0 0 24 24" fill="none" xmlns="http://www.w3.org/2000/svg">
<path d="M6.04759 15.4694C5.2711 15.4694 4.63943 14.8377 4.63943 14.0612C4.63943 13.2847 5.2711 12.6531 6.04759 12.6531C6.82408 12.6531 7.45575 13.2847 7.45575 14.0612C7.45575 14.8377 6.82408 15.4694 6.04759 15.4694ZM15.9065 15.5102C15.6473 15.102 15.4966 14.6198 15.4966 14.102C15.4966 13.567 15.6574 13.0612 15.9327 12.6531H8.24408C8.51943 13.0612 8.68024 13.567 8.68024 14.102C8.68024 14.6198 8.52939 15.102 8.27029 15.5102H15.9065ZM19.712 7.42857L20.566 4H3.64996L4.50547 7.42857H19.712ZM19.5374 14.0612C19.5374 13.2847 18.9057 12.6531 18.1292 12.6531C17.3527 12.6531 16.7211 13.2847 16.7211 14.0612C16.7211 14.8377 17.3527 15.4694 18.1292 15.4694C18.9057 15.4694 19.5374 14.8377 19.5374 14.0612ZM24 5.22449V18.7755C24 19.4518 23.479 20 22.8027 20H1.25167C0.575429 20 0 19.4518 0 18.7755V5.22449C0 4.54824 0.575429 4 1.25167 4H2.38784L3.43314 8.18898C3.50122 8.46171 3.7462 8.65306 4.02718 8.65306H20.1904C20.4716 8.65306 20.7166 8.46155 20.7845 8.18873L21.8278 4H22.8027C23.479 4 24 4.54824 24 5.22449ZM20.7347 14.0612C20.7347 12.6073 19.556 11.4286 18.102 11.4286H5.97959C4.52563 11.4286 3.34694 12.6073 3.34694 14.0612V14.102C3.34694 15.556 4.52563 16.7347 5.97959 16.7347H18.102C19.556 16.7347 20.7347 15.556 20.7347 14.102V14.0612Z" fill="#6F727F"/>
</svg>
