<svg width="24" height="24" viewBox="0 0 24 24" fill="none" xmlns="http://www.w3.org/2000/svg">
<path d="M12 15.9844C14.2005 15.9844 15.9844 14.2005 15.9844 12C15.9844 9.79949 14.2005 8.01562 12 8.01562C9.79949 8.01562 8.01562 9.79949 8.01562 12C8.01562 14.2005 9.79949 15.9844 12 15.9844Z" fill="#6F727F"/>
<path d="M12 0C5.38317 0 0 5.38317 0 12C0 18.6168 5.38317 24 12 24C18.6168 24 24 18.6168 24 12C24 5.38317 18.6168 0 12 0ZM12 17.3906C9.02761 17.3906 6.60938 14.9724 6.60938 12C6.60938 9.02761 9.02761 6.60938 12 6.60938C14.9724 6.60938 17.3906 9.02761 17.3906 12C17.3906 14.9724 14.9724 17.3906 12 17.3906Z" fill="#6F727F"/>
</svg>
