<svg width="64" height="64" viewBox="0 0 64 64" fill="none" xmlns="http://www.w3.org/2000/svg">
<path d="M32.0045 0C22.8615 0 15.3877 7.47389 15.3877 16.6168C15.3877 25.7597 22.8615 33.2336 32.0045 33.2336C41.1474 33.2336 48.6212 25.7597 48.6212 16.6168C48.6212 7.47389 41.1474 0 32.0045 0Z" fill="#6E73A9"/>
<path d="M60.5215 46.5124C60.0861 45.424 59.5056 44.4081 58.8526 43.4648C55.5147 38.5305 50.3629 35.2652 44.5579 34.467C43.8323 34.3945 43.0341 34.5395 42.4536 34.9749C39.4059 37.2244 35.7779 38.3854 32.0045 38.3854C28.2312 38.3854 24.6032 37.2244 21.5555 34.9749C20.975 34.5395 20.1768 34.3219 19.4512 34.467C13.6462 35.2652 8.42176 38.5305 5.15649 43.4648C4.50343 44.4081 3.92288 45.4966 3.4876 46.5124C3.26996 46.9479 3.34246 47.4558 3.5601 47.8912C4.14065 48.907 4.86621 49.923 5.51926 50.7937C6.5351 52.1724 7.62357 53.4059 8.85718 54.5669C9.87301 55.5827 11.034 56.526 12.1951 57.4694C17.9275 61.7506 24.8209 63.9999 31.932 63.9999C39.0432 63.9999 45.9366 61.7505 51.669 57.4694C52.83 56.5987 53.9909 55.5827 55.0069 54.5669C56.1679 53.4059 57.3288 52.1723 58.3448 50.7937C59.0704 49.8503 59.7236 48.907 60.304 47.8912C60.6666 47.4558 60.7391 46.9477 60.5215 46.5124Z" fill="#6E73A9"/>
</svg>
