<svg width="92" height="92" viewBox="0 0 92 92" fill="none" xmlns="http://www.w3.org/2000/svg">
<rect width="92" height="92" rx="2" fill="#B6BDEF"/>
<path d="M46.0044 14C36.8615 14 29.3876 21.4739 29.3876 30.6168C29.3876 39.7597 36.8615 47.2336 46.0044 47.2336C55.1473 47.2336 62.6212 39.7597 62.6212 30.6168C62.6212 21.4739 55.1473 14 46.0044 14Z" fill="#6E73A9"/>
<path d="M74.5215 60.5124C74.0861 59.424 73.5057 58.4081 72.8526 57.4648C69.5147 52.5305 64.3629 49.2652 58.5579 48.467C57.8323 48.3945 57.0341 48.5395 56.4536 48.9749C53.406 51.2244 49.7779 52.3854 46.0046 52.3854C42.2312 52.3854 38.6032 51.2244 35.5555 48.9749C34.975 48.5395 34.1768 48.3219 33.4512 48.467C27.6462 49.2652 22.4218 52.5305 19.1565 57.4648C18.5035 58.4081 17.9229 59.4966 17.4876 60.5124C17.27 60.9479 17.3425 61.4558 17.5601 61.8912C18.1407 62.907 18.8662 63.923 19.5193 64.7937C20.5351 66.1724 21.6236 67.4059 22.8572 68.5669C23.873 69.5827 25.034 70.526 26.1951 71.4694C31.9275 75.7506 38.821 77.9999 45.9321 77.9999C53.0432 77.9999 59.9367 75.7505 65.669 71.4694C66.83 70.5987 67.991 69.5827 69.0069 68.5669C70.1679 67.4059 71.3289 66.1723 72.3448 64.7937C73.0704 63.8503 73.7236 62.907 74.304 61.8912C74.6666 61.4558 74.7392 60.9477 74.5215 60.5124Z" fill="#6E73A9"/>
</svg>
