<svg width="92" height="92" viewBox="0 0 92 92" fill="none" xmlns="http://www.w3.org/2000/svg">
<rect width="92" height="92" rx="2" fill="#E3E4EC"/>
<path d="M46.0044 14C36.8615 14 29.3876 21.4739 29.3876 30.6168C29.3876 39.7597 36.8615 47.2336 46.0044 47.2336C55.1473 47.2336 62.6212 39.7597 62.6212 30.6168C62.6212 21.4739 55.1473 14 46.0044 14Z" fill="#B7BBCD"/>
<path d="M74.5215 60.5124C74.0861 59.4239 73.5057 58.4081 72.8526 57.4647C69.5147 52.5304 64.3629 49.2652 58.5579 48.467C57.8323 48.3945 57.0342 48.5395 56.4536 48.9749C53.406 51.2243 49.7779 52.3853 46.0046 52.3853C42.2312 52.3853 38.6032 51.2243 35.5555 48.9749C34.975 48.5395 34.1768 48.3218 33.4512 48.467C27.6462 49.2652 22.4218 52.5304 19.1565 57.4647C18.5035 58.4081 17.9229 59.4965 17.4876 60.5124C17.27 60.9478 17.3425 61.4557 17.5601 61.8911C18.1407 62.907 18.8662 63.9229 19.5193 64.7936C20.5351 66.1724 21.6236 67.4058 22.8572 68.5668C23.873 69.5826 25.034 70.526 26.1951 71.4693C31.9275 75.7506 38.821 77.9999 45.9321 77.9999C53.0432 77.9999 59.9367 75.7504 65.669 71.4693C66.83 70.5986 67.991 69.5826 69.0069 68.5668C70.1679 67.4058 71.3289 66.1722 72.3448 64.7936C73.0704 63.8503 73.7236 62.907 74.304 61.8911C74.6667 61.4557 74.7392 60.9477 74.5215 60.5124Z" fill="#B7BBCD"/>
</svg>
