<svg width="197" height="75" viewBox="0 0 197 75" fill="none" xmlns="http://www.w3.org/2000/svg">
<path d="M102 75L105 59H115L112 75H102Z" fill="#40738F"/>
<path d="M92 75L95 59H105L102 75H92Z" fill="#659FA2"/>
<path d="M82 75L85 59H95L92 75H82Z" fill="#89CAB4"/>
<path d="M72 75L75 59H85L82 75H72Z" fill="#AEF6C7"/>
<path d="M113 16L116 0H126L123 16H113Z" fill="#40738F"/>
<path d="M103 16L106 0H116L113 16H103Z" fill="#659FA2"/>
<path d="M93 16L96 0H106L103 16H93Z" fill="#89CAB4"/>
<path d="M83 16L86 0H96L93 16H83Z" fill="#AEF6C7"/>
<path d="M111.56 29.364C111.44 29.568 111.314 29.718 111.182 29.814C111.05 29.91 110.882 29.958 110.678 29.958C110.462 29.958 110.216 29.862 109.94 29.67C109.664 29.466 109.316 29.244 108.896 29.004C108.488 28.752 107.996 28.53 107.42 28.338C106.844 28.134 106.154 28.032 105.35 28.032C104.594 28.032 103.928 28.134 103.352 28.338C102.788 28.53 102.314 28.8 101.93 29.148C101.546 29.484 101.252 29.886 101.048 30.354C100.856 30.81 100.76 31.308 100.76 31.848C100.76 32.544 100.934 33.12 101.282 33.576C101.642 34.032 102.11 34.422 102.686 34.746C103.262 35.07 103.916 35.352 104.648 35.592C105.38 35.832 106.13 36.084 106.898 36.348C107.666 36.6 108.416 36.894 109.148 37.23C109.88 37.566 110.534 37.992 111.11 38.508C111.686 39.012 112.148 39.636 112.496 40.38C112.856 41.112 113.036 42.012 113.036 43.08C113.036 44.22 112.838 45.288 112.442 46.284C112.058 47.28 111.494 48.15 110.75 48.894C110.006 49.638 109.088 50.226 107.996 50.658C106.916 51.078 105.686 51.288 104.306 51.288C103.478 51.288 102.674 51.204 101.894 51.036C101.114 50.88 100.376 50.658 99.68 50.37C98.984 50.07 98.33 49.716 97.718 49.308C97.118 48.888 96.578 48.42 96.098 47.904L97.196 46.068C97.304 45.924 97.43 45.804 97.574 45.708C97.73 45.612 97.904 45.564 98.096 45.564C98.348 45.564 98.636 45.696 98.96 45.96C99.296 46.224 99.704 46.518 100.184 46.842C100.676 47.154 101.258 47.442 101.93 47.706C102.614 47.97 103.442 48.102 104.414 48.102C105.206 48.102 105.914 48 106.538 47.796C107.162 47.58 107.684 47.28 108.104 46.896C108.536 46.5 108.866 46.026 109.094 45.474C109.322 44.922 109.436 44.31 109.436 43.638C109.436 42.882 109.262 42.264 108.914 41.784C108.566 41.304 108.104 40.902 107.528 40.578C106.952 40.254 106.298 39.978 105.566 39.75C104.834 39.522 104.084 39.288 103.316 39.048C102.548 38.796 101.798 38.508 101.066 38.184C100.334 37.86 99.68 37.44 99.104 36.924C98.528 36.396 98.066 35.742 97.718 34.962C97.37 34.17 97.196 33.198 97.196 32.046C97.196 31.122 97.376 30.228 97.736 29.364C98.096 28.5 98.618 27.738 99.302 27.078C99.998 26.406 100.85 25.872 101.858 25.476C102.866 25.068 104.018 24.864 105.314 24.864C106.766 24.864 108.098 25.098 109.31 25.566C110.534 26.022 111.596 26.682 112.496 27.546L111.56 29.364ZM121.963 51.288C120.487 51.288 119.347 50.874 118.543 50.046C117.751 49.218 117.355 48.036 117.355 46.5V35.556H115.231C115.027 35.556 114.853 35.496 114.709 35.376C114.577 35.244 114.511 35.052 114.511 34.8V33.378L117.481 32.964L118.273 27.51C118.321 27.306 118.411 27.15 118.543 27.042C118.687 26.922 118.867 26.862 119.083 26.862H120.865V33H126.049V35.556H120.865V46.266C120.865 46.986 121.039 47.526 121.387 47.886C121.747 48.234 122.203 48.408 122.755 48.408C123.079 48.408 123.355 48.366 123.583 48.282C123.823 48.198 124.027 48.108 124.195 48.012C124.363 47.904 124.507 47.808 124.627 47.724C124.747 47.64 124.855 47.598 124.951 47.598C125.071 47.598 125.161 47.628 125.221 47.688C125.293 47.736 125.365 47.82 125.437 47.94L126.481 49.632C125.905 50.16 125.221 50.568 124.429 50.856C123.637 51.144 122.815 51.288 121.963 51.288ZM144.492 32.712V51H142.386C141.906 51 141.594 50.766 141.45 50.298L141.198 48.462C140.802 48.882 140.388 49.266 139.956 49.614C139.524 49.962 139.062 50.262 138.57 50.514C138.078 50.754 137.556 50.94 137.004 51.072C136.452 51.216 135.858 51.288 135.222 51.288C134.214 51.288 133.326 51.12 132.558 50.784C131.802 50.448 131.166 49.98 130.65 49.38C130.134 48.768 129.744 48.036 129.48 47.184C129.216 46.332 129.084 45.39 129.084 44.358V32.712H132.612V44.358C132.612 45.666 132.912 46.686 133.512 47.418C134.112 48.138 135.03 48.498 136.266 48.498C137.166 48.498 138.006 48.288 138.786 47.868C139.566 47.436 140.298 46.848 140.982 46.104V32.712H144.492ZM161.182 37.14C160.606 36.384 159.982 35.856 159.31 35.556C158.65 35.256 157.906 35.106 157.078 35.106C155.47 35.106 154.222 35.688 153.334 36.852C152.458 38.004 152.02 39.69 152.02 41.91C152.02 43.074 152.116 44.07 152.308 44.898C152.512 45.714 152.8 46.386 153.172 46.914C153.556 47.43 154.024 47.814 154.576 48.066C155.128 48.306 155.752 48.426 156.448 48.426C157.468 48.426 158.35 48.198 159.094 47.742C159.838 47.286 160.534 46.644 161.182 45.816V37.14ZM164.71 24.432V51H162.586C162.094 51 161.788 50.766 161.668 50.298L161.362 48.192C160.582 49.116 159.694 49.86 158.698 50.424C157.714 50.976 156.574 51.252 155.278 51.252C154.234 51.252 153.286 51.048 152.434 50.64C151.594 50.232 150.874 49.638 150.274 48.858C149.674 48.066 149.212 47.088 148.888 45.924C148.564 44.76 148.402 43.422 148.402 41.91C148.402 40.554 148.582 39.294 148.942 38.13C149.302 36.966 149.824 35.958 150.508 35.106C151.192 34.254 152.02 33.588 152.992 33.108C153.964 32.616 155.062 32.37 156.286 32.37C157.39 32.37 158.326 32.55 159.094 32.91C159.874 33.27 160.57 33.78 161.182 34.44V24.432H164.71ZM173.279 32.712V51H169.769V32.712H173.279ZM173.945 27.06C173.945 27.384 173.879 27.696 173.747 27.996C173.615 28.284 173.435 28.542 173.207 28.77C172.991 28.986 172.733 29.16 172.433 29.292C172.133 29.412 171.821 29.472 171.497 29.472C171.173 29.472 170.867 29.412 170.579 29.292C170.291 29.16 170.033 28.986 169.805 28.77C169.589 28.542 169.415 28.284 169.283 27.996C169.163 27.696 169.103 27.384 169.103 27.06C169.103 26.724 169.163 26.412 169.283 26.124C169.415 25.824 169.589 25.566 169.805 25.35C170.033 25.122 170.291 24.948 170.579 24.828C170.867 24.696 171.173 24.63 171.497 24.63C171.821 24.63 172.133 24.696 172.433 24.828C172.733 24.948 172.991 25.122 173.207 25.35C173.435 25.566 173.615 25.824 173.747 26.124C173.879 26.412 173.945 26.724 173.945 27.06ZM186.155 32.424C187.499 32.424 188.711 32.646 189.791 33.09C190.883 33.522 191.807 34.152 192.563 34.98C193.331 35.796 193.919 36.786 194.327 37.95C194.735 39.102 194.939 40.398 194.939 41.838C194.939 43.278 194.735 44.58 194.327 45.744C193.919 46.908 193.331 47.898 192.563 48.714C191.807 49.53 190.883 50.16 189.791 50.604C188.711 51.036 187.499 51.252 186.155 51.252C184.799 51.252 183.575 51.036 182.483 50.604C181.403 50.16 180.479 49.53 179.711 48.714C178.943 47.898 178.349 46.908 177.929 45.744C177.521 44.58 177.317 43.278 177.317 41.838C177.317 40.398 177.521 39.102 177.929 37.95C178.349 36.786 178.943 35.796 179.711 34.98C180.479 34.152 181.403 33.522 182.483 33.09C183.575 32.646 184.799 32.424 186.155 32.424ZM186.155 48.516C187.883 48.516 189.173 47.934 190.025 46.77C190.877 45.606 191.303 43.968 191.303 41.856C191.303 39.744 190.877 38.106 190.025 36.942C189.173 35.766 187.883 35.178 186.155 35.178C184.403 35.178 183.095 35.766 182.231 36.942C181.379 38.106 180.953 39.744 180.953 41.856C180.953 43.968 181.379 45.606 182.231 46.77C183.095 47.934 184.403 48.516 186.155 48.516Z" fill="#FDFDFD"/>
<path d="M3.978 38.256C3.978 40.044 4.224 41.646 4.716 43.062C5.22 44.466 5.922 45.66 6.822 46.644C7.734 47.628 8.82 48.378 10.08 48.894C11.34 49.41 12.726 49.668 14.238 49.668C15.762 49.668 17.154 49.41 18.414 48.894C19.674 48.378 20.754 47.628 21.654 46.644C22.554 45.66 23.25 44.466 23.742 43.062C24.234 41.646 24.48 40.044 24.48 38.256C24.48 36.48 24.234 34.884 23.742 33.468C23.25 32.052 22.554 30.852 21.654 29.868C20.754 28.884 19.674 28.134 18.414 27.618C17.154 27.09 15.762 26.826 14.238 26.826C12.726 26.826 11.34 27.09 10.08 27.618C8.82 28.134 7.734 28.884 6.822 29.868C5.922 30.852 5.22 32.052 4.716 33.468C4.224 34.884 3.978 36.48 3.978 38.256ZM27.432 56.616H25.884C25.416 56.616 25.032 56.466 24.732 56.166L19.296 50.298C18.54 50.61 17.742 50.85 16.902 51.018C16.062 51.186 15.174 51.27 14.238 51.27C12.438 51.27 10.794 50.964 9.306 50.352C7.818 49.728 6.54 48.852 5.472 47.724C4.404 46.584 3.576 45.216 2.988 43.62C2.4 42.012 2.106 40.224 2.106 38.256C2.106 36.3 2.4 34.524 2.988 32.928C3.576 31.32 4.404 29.952 5.472 28.824C6.54 27.684 7.818 26.802 9.306 26.178C10.794 25.554 12.438 25.242 14.238 25.242C16.038 25.242 17.682 25.554 19.17 26.178C20.67 26.79 21.954 27.666 23.022 28.806C24.09 29.946 24.918 31.32 25.506 32.928C26.094 34.524 26.388 36.3 26.388 38.256C26.388 39.54 26.256 40.752 25.992 41.892C25.74 43.02 25.374 44.064 24.894 45.024C24.414 45.972 23.826 46.824 23.13 47.58C22.446 48.336 21.672 48.984 20.808 49.524L27.432 56.616ZM45.0082 33.09V51H44.0542C43.7542 51 43.5802 50.844 43.5322 50.532L43.3702 47.868C42.5422 48.9 41.5822 49.728 40.4902 50.352C39.4102 50.976 38.2042 51.288 36.8722 51.288C35.8762 51.288 35.0062 51.132 34.2622 50.82C33.5182 50.508 32.9002 50.058 32.4082 49.47C31.9162 48.882 31.5442 48.174 31.2922 47.346C31.0402 46.518 30.9142 45.582 30.9142 44.538V33.09H32.6422V44.538C32.6422 46.218 33.0262 47.538 33.7942 48.498C34.5622 49.446 35.7322 49.92 37.3042 49.92C38.4682 49.92 39.5542 49.626 40.5622 49.038C41.5822 48.438 42.4882 47.61 43.2802 46.554V33.09H45.0082ZM52.8131 33.09V51H51.1031V33.09H52.8131ZM53.5511 26.916C53.5511 27.132 53.5031 27.336 53.4071 27.528C53.3231 27.708 53.2091 27.87 53.0651 28.014C52.9211 28.158 52.7531 28.272 52.5611 28.356C52.3691 28.44 52.1651 28.482 51.9491 28.482C51.7331 28.482 51.5291 28.44 51.3371 28.356C51.1451 28.272 50.9771 28.158 50.8331 28.014C50.6891 27.87 50.5751 27.708 50.4911 27.528C50.4071 27.336 50.3651 27.132 50.3651 26.916C50.3651 26.7 50.4071 26.496 50.4911 26.304C50.5751 26.1 50.6891 25.926 50.8331 25.782C50.9771 25.638 51.1451 25.524 51.3371 25.44C51.5291 25.356 51.7331 25.314 51.9491 25.314C52.1651 25.314 52.3691 25.356 52.5611 25.44C52.7531 25.524 52.9211 25.638 53.0651 25.782C53.2091 25.926 53.3231 26.1 53.4071 26.304C53.5031 26.496 53.5511 26.7 53.5511 26.916ZM70.9628 35.484C70.9028 35.544 70.8428 35.598 70.7828 35.646C70.7348 35.682 70.6628 35.7 70.5668 35.7C70.4468 35.7 70.2848 35.622 70.0808 35.466C69.8768 35.298 69.6008 35.118 69.2528 34.926C68.9048 34.734 68.4668 34.56 67.9388 34.404C67.4228 34.236 66.7928 34.152 66.0488 34.152C65.0168 34.152 64.0988 34.338 63.2948 34.71C62.5028 35.07 61.8308 35.592 61.2788 36.276C60.7268 36.96 60.3068 37.788 60.0188 38.76C59.7428 39.732 59.6048 40.824 59.6048 42.036C59.6048 43.296 59.7488 44.412 60.0368 45.384C60.3368 46.356 60.7568 47.178 61.2968 47.85C61.8368 48.51 62.4908 49.014 63.2588 49.362C64.0268 49.71 64.8788 49.884 65.8148 49.884C66.6788 49.884 67.3988 49.782 67.9748 49.578C68.5628 49.374 69.0428 49.152 69.4148 48.912C69.7988 48.672 70.0988 48.45 70.3148 48.246C70.5308 48.042 70.7108 47.94 70.8548 47.94C70.9988 47.94 71.1188 48 71.2148 48.12L71.6648 48.696C71.3888 49.056 71.0408 49.392 70.6208 49.704C70.2008 50.016 69.7268 50.286 69.1988 50.514C68.6708 50.742 68.0948 50.916 67.4708 51.036C66.8588 51.168 66.2168 51.234 65.5448 51.234C64.4048 51.234 63.3608 51.03 62.4128 50.622C61.4768 50.202 60.6668 49.602 59.9828 48.822C59.3108 48.03 58.7828 47.064 58.3988 45.924C58.0268 44.784 57.8408 43.488 57.8408 42.036C57.8408 40.668 58.0208 39.42 58.3808 38.292C58.7408 37.164 59.2688 36.192 59.9648 35.376C60.6608 34.56 61.5068 33.93 62.5028 33.486C63.5108 33.03 64.6628 32.802 65.9588 32.802C67.1228 32.802 68.1548 32.988 69.0548 33.36C69.9548 33.732 70.7408 34.236 71.4128 34.872L70.9628 35.484ZM77.6292 24.81V40.776H78.4572C78.6252 40.776 78.7812 40.752 78.9252 40.704C79.0812 40.656 79.2492 40.542 79.4292 40.362L86.6112 33.54C86.7312 33.396 86.8632 33.288 87.0072 33.216C87.1512 33.132 87.3312 33.09 87.5472 33.09H89.0592L81.1572 40.596C80.9412 40.848 80.7072 41.046 80.4552 41.19C80.6472 41.286 80.8092 41.4 80.9412 41.532C81.0852 41.652 81.2232 41.796 81.3552 41.964L89.6532 51H88.1592C87.9912 51 87.8352 50.976 87.6912 50.928C87.5592 50.868 87.4332 50.754 87.3132 50.586L79.7892 42.522C79.6932 42.414 79.5972 42.324 79.5012 42.252C79.4172 42.18 79.3272 42.126 79.2312 42.09C79.1352 42.042 79.0212 42.012 78.8892 42C78.7692 41.976 78.6192 41.964 78.4392 41.964H77.6292V51H75.9012V24.81H77.6292Z" fill="#FDFDFD"/>
</svg>
