<svg width="24" height="17" viewBox="0 0 24 17" fill="none" xmlns="http://www.w3.org/2000/svg">
<g clip-path="url(#clip0)">
<path d="M23.3973 0.157114C23.567 0.0192795 23.7098 -0.0278759 23.8259 0.0156517C23.942 0.0591793 24 0.175249 24 0.363865V16.3817C24 16.5703 23.942 16.6864 23.8259 16.7299C23.7098 16.7735 23.567 16.7263 23.3973 16.5885L13.8884 8.86247C13.8363 8.82014 13.7143 8.86098 13.7143 8.92811V16.3817C13.7143 16.5703 13.6562 16.6864 13.5402 16.7299C13.4241 16.7735 13.2812 16.7263 13.1116 16.5885L3.60268 8.86247C3.55058 8.82014 3.42857 8.86098 3.42857 8.92811V16.0335C3.42857 16.2221 3.34375 16.3853 3.17411 16.5232C3.00446 16.661 2.80357 16.7299 2.57143 16.7299H0.857143C0.625 16.7299 0.424107 16.661 0.254464 16.5232C0.0848214 16.3853 0 16.2221 0 16.0335V0.71208C0 0.523464 0.0848214 0.360239 0.254464 0.222404C0.424107 0.0845699 0.625 0.0156517 0.857143 0.0156517H2.57143C2.80357 0.0156517 3.00446 0.0845699 3.17411 0.222404C3.34375 0.360239 3.42857 0.523464 3.42857 0.71208V7.81638C3.42857 7.87938 3.5516 7.92 3.60268 7.88312L13.1116 0.157114C13.2812 0.0192795 13.4241 -0.0278759 13.5402 0.0156517C13.6562 0.0591793 13.7143 0.175249 13.7143 0.363865V7.81638C13.7143 7.87938 13.8373 7.92 13.8884 7.88312L23.3973 0.157114Z" fill="#B7BBCD"/>
</g>
<defs>
<clipPath id="clip0">
<rect width="24" height="16.7456" fill="white"/>
</clipPath>
</defs>
</svg>
