<svg width="24" height="17" viewBox="0 0 24 17" fill="none" xmlns="http://www.w3.org/2000/svg">
<g clip-path="url(#clip0)">
<path d="M0.602679 16.5885C0.433036 16.7263 0.290179 16.7735 0.174107 16.7299C0.0580357 16.6864 0 16.5703 0 16.3817V0.363865C0 0.175249 0.0580357 0.0591774 0.174107 0.0156517C0.290179 -0.0278759 0.433036 0.0192776 0.602679 0.157112L10.1116 7.88312C10.1683 7.92918 10.2857 7.89097 10.2857 7.81793V0.363865C10.2857 0.175249 10.3438 0.0591774 10.4598 0.0156517C10.5759 -0.0278759 10.7188 0.0192776 10.8884 0.157112L20.3973 7.88312C20.454 7.92918 20.5714 7.89097 20.5714 7.81793V0.71208C20.5714 0.523464 20.6562 0.360237 20.8259 0.222403C20.9955 0.084568 21.1964 0.0156517 21.4286 0.0156517H23.1429C23.375 0.0156517 23.5759 0.084568 23.7455 0.222403C23.9152 0.360237 24 0.523464 24 0.71208V16.0335C24 16.2221 23.9152 16.3853 23.7455 16.5232C23.5759 16.661 23.375 16.7299 23.1429 16.7299H21.4286C21.1964 16.7299 20.9955 16.661 20.8259 16.5232C20.6562 16.3853 20.5714 16.2221 20.5714 16.0335V8.92689C20.5714 8.8495 20.4544 8.81025 20.3973 8.86247L10.8884 16.5885C10.7188 16.7263 10.5759 16.7735 10.4598 16.7299C10.3438 16.6864 10.2857 16.5703 10.2857 16.3817V8.92689C10.2857 8.8495 10.1687 8.81025 10.1116 8.86247L0.602679 16.5885Z" fill="#B7BBCD"/>
</g>
<defs>
<clipPath id="clip0">
<rect width="24" height="16.7456" fill="white"/>
</clipPath>
</defs>
</svg>
