<svg width="251" height="43" viewBox="0 0 251 43" fill="none" xmlns="http://www.w3.org/2000/svg">
<rect x="43" y="3.8147e-06" width="43" height="10.75" transform="rotate(90 43 3.8147e-06)" fill="#6E73A9"/>
<rect x="32.25" y="3.8147e-06" width="43" height="10.75" transform="rotate(90 32.25 3.8147e-06)" fill="#7B99AC"/>
<rect x="21.5" width="43" height="10.75" transform="rotate(90 21.5 0)" fill="#89C0B0"/>
<rect x="10.75" width="43" height="10.75" transform="rotate(90 10.75 0)" fill="#96E6B3"/>
<path d="M162.488 13.238C162.38 13.418 162.26 13.556 162.128 13.652C162.008 13.736 161.858 13.778 161.678 13.778C161.474 13.778 161.234 13.676 160.958 13.472C160.682 13.268 160.334 13.046 159.914 12.806C159.506 12.554 159.008 12.326 158.42 12.122C157.844 11.918 157.142 11.816 156.314 11.816C155.534 11.816 154.844 11.924 154.244 12.14C153.656 12.344 153.158 12.626 152.75 12.986C152.354 13.346 152.054 13.772 151.85 14.264C151.646 14.744 151.544 15.266 151.544 15.83C151.544 16.55 151.718 17.15 152.066 17.63C152.426 18.098 152.894 18.5 153.47 18.836C154.058 19.172 154.718 19.466 155.45 19.718C156.194 19.958 156.95 20.21 157.718 20.474C158.498 20.738 159.254 21.038 159.986 21.374C160.73 21.698 161.39 22.112 161.966 22.616C162.554 23.12 163.022 23.738 163.37 24.47C163.73 25.202 163.91 26.102 163.91 27.17C163.91 28.298 163.718 29.36 163.334 30.356C162.95 31.34 162.386 32.198 161.642 32.93C160.91 33.662 160.004 34.238 158.924 34.658C157.856 35.078 156.638 35.288 155.27 35.288C153.59 35.288 152.066 34.988 150.698 34.388C149.33 33.776 148.16 32.954 147.188 31.922L148.196 30.266C148.292 30.134 148.406 30.026 148.538 29.942C148.682 29.846 148.838 29.798 149.006 29.798C149.162 29.798 149.336 29.864 149.528 29.996C149.732 30.116 149.96 30.272 150.212 30.464C150.464 30.656 150.752 30.866 151.076 31.094C151.4 31.322 151.766 31.532 152.174 31.724C152.594 31.916 153.068 32.078 153.596 32.21C154.124 32.33 154.718 32.39 155.378 32.39C156.206 32.39 156.944 32.276 157.592 32.048C158.24 31.82 158.786 31.502 159.23 31.094C159.686 30.674 160.034 30.176 160.274 29.6C160.514 29.024 160.634 28.382 160.634 27.674C160.634 26.894 160.454 26.258 160.094 25.766C159.746 25.262 159.284 24.842 158.708 24.506C158.132 24.17 157.472 23.888 156.728 23.66C155.984 23.42 155.228 23.18 154.46 22.94C153.692 22.688 152.936 22.4 152.192 22.076C151.448 21.752 150.788 21.332 150.212 20.816C149.636 20.3 149.168 19.658 148.808 18.89C148.46 18.11 148.286 17.15 148.286 16.01C148.286 15.098 148.46 14.216 148.808 13.364C149.168 12.512 149.684 11.756 150.356 11.096C151.04 10.436 151.874 9.90801 152.858 9.51201C153.854 9.11601 154.994 8.91801 156.278 8.91801C157.718 8.91801 159.026 9.14601 160.202 9.60201C161.39 10.058 162.434 10.718 163.334 11.582L162.488 13.238ZM173.954 35.288C172.514 35.288 171.404 34.886 170.624 34.082C169.856 33.278 169.472 32.12 169.472 30.608V19.448H167.276C167.084 19.448 166.922 19.394 166.79 19.286C166.658 19.166 166.592 18.986 166.592 18.746V17.468L169.58 17.09L170.318 11.456C170.354 11.276 170.432 11.132 170.552 11.024C170.684 10.904 170.852 10.844 171.056 10.844H172.676V17.126H177.95V19.448H172.676V30.392C172.676 31.16 172.862 31.73 173.234 32.102C173.606 32.474 174.086 32.66 174.674 32.66C175.01 32.66 175.298 32.618 175.538 32.534C175.79 32.438 176.006 32.336 176.186 32.228C176.366 32.12 176.516 32.024 176.636 31.94C176.768 31.844 176.882 31.796 176.978 31.796C177.146 31.796 177.296 31.898 177.428 32.102L178.364 33.632C177.812 34.148 177.146 34.556 176.366 34.856C175.586 35.144 174.782 35.288 173.954 35.288ZM197.333 16.766V35H195.425C194.969 35 194.681 34.778 194.561 34.334L194.309 32.372C193.517 33.248 192.629 33.956 191.645 34.496C190.661 35.024 189.533 35.288 188.261 35.288C187.265 35.288 186.383 35.126 185.615 34.802C184.859 34.466 184.223 33.998 183.707 33.398C183.191 32.798 182.801 32.072 182.537 31.22C182.285 30.368 182.159 29.426 182.159 28.394V16.766H185.363V28.394C185.363 29.774 185.675 30.842 186.299 31.598C186.935 32.354 187.901 32.732 189.197 32.732C190.145 32.732 191.027 32.51 191.843 32.066C192.671 31.61 193.433 30.986 194.129 30.194V16.766H197.333ZM215.373 21.104C214.773 20.3 214.125 19.742 213.429 19.43C212.733 19.106 211.953 18.944 211.089 18.944C209.397 18.944 208.095 19.55 207.183 20.762C206.271 21.974 205.815 23.702 205.815 25.946C205.815 27.134 205.917 28.154 206.121 29.006C206.325 29.846 206.625 30.542 207.021 31.094C207.417 31.634 207.903 32.03 208.479 32.282C209.055 32.534 209.709 32.66 210.441 32.66C211.497 32.66 212.415 32.42 213.195 31.94C213.987 31.46 214.713 30.782 215.373 29.906V21.104ZM218.577 8.48601V35H216.669C216.213 35 215.925 34.778 215.805 34.334L215.517 32.12C214.737 33.056 213.849 33.812 212.853 34.388C211.857 34.964 210.705 35.252 209.397 35.252C208.353 35.252 207.405 35.054 206.553 34.658C205.701 34.25 204.975 33.656 204.375 32.876C203.775 32.096 203.313 31.124 202.989 29.96C202.665 28.796 202.503 27.458 202.503 25.946C202.503 24.602 202.683 23.354 203.043 22.202C203.403 21.038 203.919 20.03 204.591 19.178C205.263 18.326 206.085 17.66 207.057 17.18C208.041 16.688 209.145 16.442 210.369 16.442C211.485 16.442 212.439 16.634 213.231 17.018C214.035 17.39 214.749 17.912 215.373 18.584V8.48601H218.577ZM228.101 16.766V35H224.897V16.766H228.101ZM228.785 11.042C228.785 11.354 228.719 11.648 228.587 11.924C228.467 12.188 228.299 12.428 228.083 12.644C227.879 12.848 227.633 13.01 227.345 13.13C227.069 13.25 226.775 13.31 226.463 13.31C226.151 13.31 225.857 13.25 225.581 13.13C225.317 13.01 225.083 12.848 224.879 12.644C224.675 12.428 224.513 12.188 224.393 11.924C224.273 11.648 224.213 11.354 224.213 11.042C224.213 10.73 224.273 10.436 224.393 10.16C224.513 9.87201 224.675 9.62601 224.879 9.42201C225.083 9.20601 225.317 9.03801 225.581 8.91801C225.857 8.79801 226.151 8.73801 226.463 8.73801C226.775 8.73801 227.069 8.79801 227.345 8.91801C227.633 9.03801 227.879 9.20601 228.083 9.42201C228.299 9.62601 228.467 9.87201 228.587 10.16C228.719 10.436 228.785 10.73 228.785 11.042ZM242.132 16.478C243.464 16.478 244.664 16.7 245.732 17.144C246.8 17.588 247.712 18.218 248.468 19.034C249.224 19.85 249.8 20.84 250.196 22.004C250.604 23.156 250.808 24.446 250.808 25.874C250.808 27.314 250.604 28.61 250.196 29.762C249.8 30.914 249.224 31.898 248.468 32.714C247.712 33.53 246.8 34.16 245.732 34.604C244.664 35.036 243.464 35.252 242.132 35.252C240.788 35.252 239.576 35.036 238.496 34.604C237.428 34.16 236.516 33.53 235.76 32.714C235.004 31.898 234.422 30.914 234.014 29.762C233.618 28.61 233.42 27.314 233.42 25.874C233.42 24.446 233.618 23.156 234.014 22.004C234.422 20.84 235.004 19.85 235.76 19.034C236.516 18.218 237.428 17.588 238.496 17.144C239.576 16.7 240.788 16.478 242.132 16.478ZM242.132 32.75C243.932 32.75 245.276 32.15 246.164 30.95C247.052 29.738 247.496 28.052 247.496 25.892C247.496 23.72 247.052 22.028 246.164 20.816C245.276 19.604 243.932 18.998 242.132 18.998C241.22 18.998 240.422 19.154 239.738 19.466C239.066 19.778 238.502 20.228 238.046 20.816C237.602 21.404 237.266 22.13 237.038 22.994C236.822 23.846 236.714 24.812 236.714 25.892C236.714 28.052 237.158 29.738 238.046 30.95C238.946 32.15 240.308 32.75 242.132 32.75Z" fill="#FDFDFD"/>
<path d="M54.978 22.256C54.978 24.044 55.224 25.646 55.716 27.062C56.22 28.466 56.922 29.66 57.822 30.644C58.734 31.628 59.82 32.378 61.08 32.894C62.34 33.41 63.726 33.668 65.238 33.668C66.762 33.668 68.154 33.41 69.414 32.894C70.674 32.378 71.754 31.628 72.654 30.644C73.554 29.66 74.25 28.466 74.742 27.062C75.234 25.646 75.48 24.044 75.48 22.256C75.48 20.48 75.234 18.884 74.742 17.468C74.25 16.052 73.554 14.852 72.654 13.868C71.754 12.884 70.674 12.134 69.414 11.618C68.154 11.09 66.762 10.826 65.238 10.826C63.726 10.826 62.34 11.09 61.08 11.618C59.82 12.134 58.734 12.884 57.822 13.868C56.922 14.852 56.22 16.052 55.716 17.468C55.224 18.884 54.978 20.48 54.978 22.256ZM78.432 40.616H76.884C76.416 40.616 76.032 40.466 75.732 40.166L70.296 34.298C69.54 34.61 68.742 34.85 67.902 35.018C67.062 35.186 66.174 35.27 65.238 35.27C63.438 35.27 61.794 34.964 60.306 34.352C58.818 33.728 57.54 32.852 56.472 31.724C55.404 30.584 54.576 29.216 53.988 27.62C53.4 26.012 53.106 24.224 53.106 22.256C53.106 20.3 53.4 18.524 53.988 16.928C54.576 15.32 55.404 13.952 56.472 12.824C57.54 11.684 58.818 10.802 60.306 10.178C61.794 9.554 63.438 9.242 65.238 9.242C67.038 9.242 68.682 9.554 70.17 10.178C71.67 10.79 72.954 11.666 74.022 12.806C75.09 13.946 75.918 15.32 76.506 16.928C77.094 18.524 77.388 20.3 77.388 22.256C77.388 23.54 77.256 24.752 76.992 25.892C76.74 27.02 76.374 28.064 75.894 29.024C75.414 29.972 74.826 30.824 74.13 31.58C73.446 32.336 72.672 32.984 71.808 33.524L78.432 40.616ZM96.0082 17.09V35H95.0542C94.7542 35 94.5802 34.844 94.5322 34.532L94.3702 31.868C93.5422 32.9 92.5822 33.728 91.4902 34.352C90.4102 34.976 89.2042 35.288 87.8722 35.288C86.8762 35.288 86.0062 35.132 85.2622 34.82C84.5182 34.508 83.9002 34.058 83.4082 33.47C82.9162 32.882 82.5442 32.174 82.2922 31.346C82.0402 30.518 81.9142 29.582 81.9142 28.538V17.09H83.6422V28.538C83.6422 30.218 84.0262 31.538 84.7942 32.498C85.5622 33.446 86.7322 33.92 88.3042 33.92C89.4682 33.92 90.5542 33.626 91.5622 33.038C92.5822 32.438 93.4882 31.61 94.2802 30.554V17.09H96.0082ZM103.813 17.09V35H102.103V17.09H103.813ZM104.551 10.916C104.551 11.132 104.503 11.336 104.407 11.528C104.323 11.708 104.209 11.87 104.065 12.014C103.921 12.158 103.753 12.272 103.561 12.356C103.369 12.44 103.165 12.482 102.949 12.482C102.733 12.482 102.529 12.44 102.337 12.356C102.145 12.272 101.977 12.158 101.833 12.014C101.689 11.87 101.575 11.708 101.491 11.528C101.407 11.336 101.365 11.132 101.365 10.916C101.365 10.7 101.407 10.496 101.491 10.304C101.575 10.1 101.689 9.926 101.833 9.782C101.977 9.638 102.145 9.524 102.337 9.44C102.529 9.356 102.733 9.314 102.949 9.314C103.165 9.314 103.369 9.356 103.561 9.44C103.753 9.524 103.921 9.638 104.065 9.782C104.209 9.926 104.323 10.1 104.407 10.304C104.503 10.496 104.551 10.7 104.551 10.916ZM121.963 19.484C121.903 19.544 121.843 19.598 121.783 19.646C121.735 19.682 121.663 19.7 121.567 19.7C121.447 19.7 121.285 19.622 121.081 19.466C120.877 19.298 120.601 19.118 120.253 18.926C119.905 18.734 119.467 18.56 118.939 18.404C118.423 18.236 117.793 18.152 117.049 18.152C116.017 18.152 115.099 18.338 114.295 18.71C113.503 19.07 112.831 19.592 112.279 20.276C111.727 20.96 111.307 21.788 111.019 22.76C110.743 23.732 110.605 24.824 110.605 26.036C110.605 27.296 110.749 28.412 111.037 29.384C111.337 30.356 111.757 31.178 112.297 31.85C112.837 32.51 113.491 33.014 114.259 33.362C115.027 33.71 115.879 33.884 116.815 33.884C117.679 33.884 118.399 33.782 118.975 33.578C119.563 33.374 120.043 33.152 120.415 32.912C120.799 32.672 121.099 32.45 121.315 32.246C121.531 32.042 121.711 31.94 121.855 31.94C121.999 31.94 122.119 32 122.215 32.12L122.665 32.696C122.389 33.056 122.041 33.392 121.621 33.704C121.201 34.016 120.727 34.286 120.199 34.514C119.671 34.742 119.095 34.916 118.471 35.036C117.859 35.168 117.217 35.234 116.545 35.234C115.405 35.234 114.361 35.03 113.413 34.622C112.477 34.202 111.667 33.602 110.983 32.822C110.311 32.03 109.783 31.064 109.399 29.924C109.027 28.784 108.841 27.488 108.841 26.036C108.841 24.668 109.021 23.42 109.381 22.292C109.741 21.164 110.269 20.192 110.965 19.376C111.661 18.56 112.507 17.93 113.503 17.486C114.511 17.03 115.663 16.802 116.959 16.802C118.123 16.802 119.155 16.988 120.055 17.36C120.955 17.732 121.741 18.236 122.413 18.872L121.963 19.484ZM128.629 8.81V24.776H129.457C129.625 24.776 129.781 24.752 129.925 24.704C130.081 24.656 130.249 24.542 130.429 24.362L137.611 17.54C137.731 17.396 137.863 17.288 138.007 17.216C138.151 17.132 138.331 17.09 138.547 17.09H140.059L132.157 24.596C131.941 24.848 131.707 25.046 131.455 25.19C131.647 25.286 131.809 25.4 131.941 25.532C132.085 25.652 132.223 25.796 132.355 25.964L140.653 35H139.159C138.991 35 138.835 34.976 138.691 34.928C138.559 34.868 138.433 34.754 138.313 34.586L130.789 26.522C130.693 26.414 130.597 26.324 130.501 26.252C130.417 26.18 130.327 26.126 130.231 26.09C130.135 26.042 130.021 26.012 129.889 26C129.769 25.976 129.619 25.964 129.439 25.964H128.629V35H126.901V8.81H128.629Z" fill="#FDFDFD"/>
</svg>
