<svg width="201" height="75" viewBox="0 0 201 75" fill="none" xmlns="http://www.w3.org/2000/svg">
<rect x="109" y="75" width="16" height="10" transform="rotate(-90 109 75)" fill="#6E73A9"/>
<rect x="99" y="75" width="16" height="10" transform="rotate(-90 99 75)" fill="#7B99AC"/>
<rect x="89" y="75" width="16" height="10" transform="rotate(-90 89 75)" fill="#89C0B0"/>
<rect x="79" y="75" width="16" height="10" transform="rotate(-90 79 75)" fill="#96E6B3"/>
<rect x="109" y="16" width="16" height="10" transform="rotate(-90 109 16)" fill="#6E73A9"/>
<rect x="99" y="16" width="16" height="10" transform="rotate(-90 99 16)" fill="#7B99AC"/>
<rect x="89" y="16" width="16" height="10" transform="rotate(-90 89 16)" fill="#89C0B0"/>
<rect x="79" y="16" width="16" height="10" transform="rotate(-90 79 16)" fill="#96E6B3"/>
<path d="M111.56 29.364C111.44 29.568 111.314 29.718 111.182 29.814C111.05 29.91 110.882 29.958 110.678 29.958C110.462 29.958 110.216 29.862 109.94 29.67C109.664 29.466 109.316 29.244 108.896 29.004C108.488 28.752 107.996 28.53 107.42 28.338C106.844 28.134 106.154 28.032 105.35 28.032C104.594 28.032 103.928 28.134 103.352 28.338C102.788 28.53 102.314 28.8 101.93 29.148C101.546 29.484 101.252 29.886 101.048 30.354C100.856 30.81 100.76 31.308 100.76 31.848C100.76 32.544 100.934 33.12 101.282 33.576C101.642 34.032 102.11 34.422 102.686 34.746C103.262 35.07 103.916 35.352 104.648 35.592C105.38 35.832 106.13 36.084 106.898 36.348C107.666 36.6 108.416 36.894 109.148 37.23C109.88 37.566 110.534 37.992 111.11 38.508C111.686 39.012 112.148 39.636 112.496 40.38C112.856 41.112 113.036 42.012 113.036 43.08C113.036 44.22 112.838 45.288 112.442 46.284C112.058 47.28 111.494 48.15 110.75 48.894C110.006 49.638 109.088 50.226 107.996 50.658C106.916 51.078 105.686 51.288 104.306 51.288C103.478 51.288 102.674 51.204 101.894 51.036C101.114 50.88 100.376 50.658 99.68 50.37C98.984 50.07 98.33 49.716 97.718 49.308C97.118 48.888 96.578 48.42 96.098 47.904L97.196 46.068C97.304 45.924 97.43 45.804 97.574 45.708C97.73 45.612 97.904 45.564 98.096 45.564C98.348 45.564 98.636 45.696 98.96 45.96C99.296 46.224 99.704 46.518 100.184 46.842C100.676 47.154 101.258 47.442 101.93 47.706C102.614 47.97 103.442 48.102 104.414 48.102C105.206 48.102 105.914 48 106.538 47.796C107.162 47.58 107.684 47.28 108.104 46.896C108.536 46.5 108.866 46.026 109.094 45.474C109.322 44.922 109.436 44.31 109.436 43.638C109.436 42.882 109.262 42.264 108.914 41.784C108.566 41.304 108.104 40.902 107.528 40.578C106.952 40.254 106.298 39.978 105.566 39.75C104.834 39.522 104.084 39.288 103.316 39.048C102.548 38.796 101.798 38.508 101.066 38.184C100.334 37.86 99.68 37.44 99.104 36.924C98.528 36.396 98.066 35.742 97.718 34.962C97.37 34.17 97.196 33.198 97.196 32.046C97.196 31.122 97.376 30.228 97.736 29.364C98.096 28.5 98.618 27.738 99.302 27.078C99.998 26.406 100.85 25.872 101.858 25.476C102.866 25.068 104.018 24.864 105.314 24.864C106.766 24.864 108.098 25.098 109.31 25.566C110.534 26.022 111.596 26.682 112.496 27.546L111.56 29.364ZM123.043 51.288C121.567 51.288 120.427 50.874 119.623 50.046C118.831 49.218 118.435 48.036 118.435 46.5V35.556H116.311C116.107 35.556 115.933 35.496 115.789 35.376C115.657 35.244 115.591 35.052 115.591 34.8V33.378L118.561 32.964L119.353 27.51C119.401 27.306 119.491 27.15 119.623 27.042C119.767 26.922 119.947 26.862 120.163 26.862H121.945V33H127.129V35.556H121.945V46.266C121.945 46.986 122.119 47.526 122.467 47.886C122.827 48.234 123.283 48.408 123.835 48.408C124.159 48.408 124.435 48.366 124.663 48.282C124.903 48.198 125.107 48.108 125.275 48.012C125.443 47.904 125.587 47.808 125.707 47.724C125.827 47.64 125.935 47.598 126.031 47.598C126.151 47.598 126.241 47.628 126.301 47.688C126.373 47.736 126.445 47.82 126.517 47.94L127.561 49.632C126.985 50.16 126.301 50.568 125.509 50.856C124.717 51.144 123.895 51.288 123.043 51.288ZM146.652 32.712V51H144.546C144.066 51 143.754 50.766 143.61 50.298L143.358 48.462C142.962 48.882 142.548 49.266 142.116 49.614C141.684 49.962 141.222 50.262 140.73 50.514C140.238 50.754 139.716 50.94 139.164 51.072C138.612 51.216 138.018 51.288 137.382 51.288C136.374 51.288 135.486 51.12 134.718 50.784C133.962 50.448 133.326 49.98 132.81 49.38C132.294 48.768 131.904 48.036 131.64 47.184C131.376 46.332 131.244 45.39 131.244 44.358V32.712H134.772V44.358C134.772 45.666 135.072 46.686 135.672 47.418C136.272 48.138 137.19 48.498 138.426 48.498C139.326 48.498 140.166 48.288 140.946 47.868C141.726 47.436 142.458 46.848 143.142 46.104V32.712H146.652ZM164.422 37.14C163.846 36.384 163.222 35.856 162.55 35.556C161.89 35.256 161.146 35.106 160.318 35.106C158.71 35.106 157.462 35.688 156.574 36.852C155.698 38.004 155.26 39.69 155.26 41.91C155.26 43.074 155.356 44.07 155.548 44.898C155.752 45.714 156.04 46.386 156.412 46.914C156.796 47.43 157.264 47.814 157.816 48.066C158.368 48.306 158.992 48.426 159.688 48.426C160.708 48.426 161.59 48.198 162.334 47.742C163.078 47.286 163.774 46.644 164.422 45.816V37.14ZM167.95 24.432V51H165.826C165.334 51 165.028 50.766 164.908 50.298L164.602 48.192C163.822 49.116 162.934 49.86 161.938 50.424C160.954 50.976 159.814 51.252 158.518 51.252C157.474 51.252 156.526 51.048 155.674 50.64C154.834 50.232 154.114 49.638 153.514 48.858C152.914 48.066 152.452 47.088 152.128 45.924C151.804 44.76 151.642 43.422 151.642 41.91C151.642 40.554 151.822 39.294 152.182 38.13C152.542 36.966 153.064 35.958 153.748 35.106C154.432 34.254 155.26 33.588 156.232 33.108C157.204 32.616 158.302 32.37 159.526 32.37C160.63 32.37 161.566 32.55 162.334 32.91C163.114 33.27 163.81 33.78 164.422 34.44V24.432H167.95ZM177.599 32.712V51H174.089V32.712H177.599ZM178.265 27.06C178.265 27.384 178.199 27.696 178.067 27.996C177.935 28.284 177.755 28.542 177.527 28.77C177.311 28.986 177.053 29.16 176.753 29.292C176.453 29.412 176.141 29.472 175.817 29.472C175.493 29.472 175.187 29.412 174.899 29.292C174.611 29.16 174.353 28.986 174.125 28.77C173.909 28.542 173.735 28.284 173.603 27.996C173.483 27.696 173.423 27.384 173.423 27.06C173.423 26.724 173.483 26.412 173.603 26.124C173.735 25.824 173.909 25.566 174.125 25.35C174.353 25.122 174.611 24.948 174.899 24.828C175.187 24.696 175.493 24.63 175.817 24.63C176.141 24.63 176.453 24.696 176.753 24.828C177.053 24.948 177.311 25.122 177.527 25.35C177.755 25.566 177.935 25.824 178.067 26.124C178.199 26.412 178.265 26.724 178.265 27.06ZM191.555 32.424C192.899 32.424 194.111 32.646 195.191 33.09C196.283 33.522 197.207 34.152 197.963 34.98C198.731 35.796 199.319 36.786 199.727 37.95C200.135 39.102 200.339 40.398 200.339 41.838C200.339 43.278 200.135 44.58 199.727 45.744C199.319 46.908 198.731 47.898 197.963 48.714C197.207 49.53 196.283 50.16 195.191 50.604C194.111 51.036 192.899 51.252 191.555 51.252C190.199 51.252 188.975 51.036 187.883 50.604C186.803 50.16 185.879 49.53 185.111 48.714C184.343 47.898 183.749 46.908 183.329 45.744C182.921 44.58 182.717 43.278 182.717 41.838C182.717 40.398 182.921 39.102 183.329 37.95C183.749 36.786 184.343 35.796 185.111 34.98C185.879 34.152 186.803 33.522 187.883 33.09C188.975 32.646 190.199 32.424 191.555 32.424ZM191.555 48.516C193.283 48.516 194.573 47.934 195.425 46.77C196.277 45.606 196.703 43.968 196.703 41.856C196.703 39.744 196.277 38.106 195.425 36.942C194.573 35.766 193.283 35.178 191.555 35.178C189.803 35.178 188.495 35.766 187.631 36.942C186.779 38.106 186.353 39.744 186.353 41.856C186.353 43.968 186.779 45.606 187.631 46.77C188.495 47.934 189.803 48.516 191.555 48.516Z" fill="#4A4D58"/>
<path d="M4.90769 38.256C4.90769 40.044 5.15369 41.646 5.64569 43.062C6.14969 44.466 6.85169 45.66 7.75169 46.644C8.66369 47.628 9.74969 48.378 11.0097 48.894C12.2697 49.41 13.6557 49.668 15.1677 49.668C16.6917 49.668 18.0837 49.41 19.3437 48.894C20.6037 48.378 21.6837 47.628 22.5837 46.644C23.4837 45.66 24.1797 44.466 24.6717 43.062C25.1637 41.646 25.4097 40.044 25.4097 38.256C25.4097 36.48 25.1637 34.884 24.6717 33.468C24.1797 32.052 23.4837 30.852 22.5837 29.868C21.6837 28.884 20.6037 28.134 19.3437 27.618C18.0837 27.09 16.6917 26.826 15.1677 26.826C13.6557 26.826 12.2697 27.09 11.0097 27.618C9.74969 28.134 8.66369 28.884 7.75169 29.868C6.85169 30.852 6.14969 32.052 5.64569 33.468C5.15369 34.884 4.90769 36.48 4.90769 38.256ZM28.3617 56.616H26.8137C26.3457 56.616 25.9617 56.466 25.6617 56.166L20.2257 50.298C19.4697 50.61 18.6717 50.85 17.8317 51.018C16.9917 51.186 16.1037 51.27 15.1677 51.27C13.3677 51.27 11.7237 50.964 10.2357 50.352C8.74769 49.728 7.46969 48.852 6.40169 47.724C5.33369 46.584 4.50569 45.216 3.91769 43.62C3.32969 42.012 3.03569 40.224 3.03569 38.256C3.03569 36.3 3.32969 34.524 3.91769 32.928C4.50569 31.32 5.33369 29.952 6.40169 28.824C7.46969 27.684 8.74769 26.802 10.2357 26.178C11.7237 25.554 13.3677 25.242 15.1677 25.242C16.9677 25.242 18.6117 25.554 20.0997 26.178C21.5997 26.79 22.8837 27.666 23.9517 28.806C25.0197 29.946 25.8477 31.32 26.4357 32.928C27.0237 34.524 27.3177 36.3 27.3177 38.256C27.3177 39.54 27.1857 40.752 26.9217 41.892C26.6697 43.02 26.3037 44.064 25.8237 45.024C25.3437 45.972 24.7557 46.824 24.0597 47.58C23.3757 48.336 22.6017 48.984 21.7377 49.524L28.3617 56.616ZM45.9378 33.09V51H44.9838C44.6838 51 44.5098 50.844 44.4618 50.532L44.2998 47.868C43.4718 48.9 42.5118 49.728 41.4198 50.352C40.3398 50.976 39.1338 51.288 37.8018 51.288C36.8058 51.288 35.9358 51.132 35.1918 50.82C34.4478 50.508 33.8298 50.058 33.3378 49.47C32.8458 48.882 32.4738 48.174 32.2218 47.346C31.9698 46.518 31.8438 45.582 31.8438 44.538V33.09H33.5718V44.538C33.5718 46.218 33.9558 47.538 34.7238 48.498C35.4918 49.446 36.6618 49.92 38.2338 49.92C39.3978 49.92 40.4838 49.626 41.4918 49.038C42.5118 48.438 43.4178 47.61 44.2098 46.554V33.09H45.9378ZM53.7428 33.09V51H52.0328V33.09H53.7428ZM54.4808 26.916C54.4808 27.132 54.4328 27.336 54.3368 27.528C54.2528 27.708 54.1388 27.87 53.9948 28.014C53.8508 28.158 53.6828 28.272 53.4908 28.356C53.2988 28.44 53.0948 28.482 52.8788 28.482C52.6628 28.482 52.4588 28.44 52.2668 28.356C52.0748 28.272 51.9068 28.158 51.7628 28.014C51.6188 27.87 51.5048 27.708 51.4208 27.528C51.3368 27.336 51.2948 27.132 51.2948 26.916C51.2948 26.7 51.3368 26.496 51.4208 26.304C51.5048 26.1 51.6188 25.926 51.7628 25.782C51.9068 25.638 52.0748 25.524 52.2668 25.44C52.4588 25.356 52.6628 25.314 52.8788 25.314C53.0948 25.314 53.2988 25.356 53.4908 25.44C53.6828 25.524 53.8508 25.638 53.9948 25.782C54.1388 25.926 54.2528 26.1 54.3368 26.304C54.4328 26.496 54.4808 26.7 54.4808 26.916ZM71.8924 35.484C71.8324 35.544 71.7724 35.598 71.7124 35.646C71.6644 35.682 71.5924 35.7 71.4964 35.7C71.3764 35.7 71.2144 35.622 71.0104 35.466C70.8064 35.298 70.5304 35.118 70.1824 34.926C69.8344 34.734 69.3964 34.56 68.8684 34.404C68.3524 34.236 67.7224 34.152 66.9784 34.152C65.9464 34.152 65.0284 34.338 64.2244 34.71C63.4324 35.07 62.7604 35.592 62.2084 36.276C61.6564 36.96 61.2364 37.788 60.9484 38.76C60.6724 39.732 60.5344 40.824 60.5344 42.036C60.5344 43.296 60.6784 44.412 60.9664 45.384C61.2664 46.356 61.6864 47.178 62.2264 47.85C62.7664 48.51 63.4204 49.014 64.1884 49.362C64.9564 49.71 65.8084 49.884 66.7444 49.884C67.6084 49.884 68.3284 49.782 68.9044 49.578C69.4924 49.374 69.9724 49.152 70.3444 48.912C70.7284 48.672 71.0284 48.45 71.2444 48.246C71.4604 48.042 71.6404 47.94 71.7844 47.94C71.9284 47.94 72.0484 48 72.1444 48.12L72.5944 48.696C72.3184 49.056 71.9704 49.392 71.5504 49.704C71.1304 50.016 70.6564 50.286 70.1284 50.514C69.6004 50.742 69.0244 50.916 68.4004 51.036C67.7884 51.168 67.1464 51.234 66.4744 51.234C65.3344 51.234 64.2904 51.03 63.3424 50.622C62.4064 50.202 61.5964 49.602 60.9124 48.822C60.2404 48.03 59.7124 47.064 59.3284 45.924C58.9564 44.784 58.7704 43.488 58.7704 42.036C58.7704 40.668 58.9504 39.42 59.3104 38.292C59.6704 37.164 60.1984 36.192 60.8944 35.376C61.5904 34.56 62.4364 33.93 63.4324 33.486C64.4404 33.03 65.5924 32.802 66.8884 32.802C68.0524 32.802 69.0844 32.988 69.9844 33.36C70.8844 33.732 71.6704 34.236 72.3424 34.872L71.8924 35.484ZM78.5589 24.81V40.776H79.3869C79.5549 40.776 79.7109 40.752 79.8549 40.704C80.0109 40.656 80.1789 40.542 80.3589 40.362L87.5409 33.54C87.6609 33.396 87.7929 33.288 87.9369 33.216C88.0809 33.132 88.2609 33.09 88.4769 33.09H89.9889L82.0869 40.596C81.8709 40.848 81.6369 41.046 81.3849 41.19C81.5769 41.286 81.7389 41.4 81.8709 41.532C82.0149 41.652 82.1529 41.796 82.2849 41.964L90.5829 51H89.0889C88.9209 51 88.7649 50.976 88.6209 50.928C88.4889 50.868 88.3629 50.754 88.2429 50.586L80.7189 42.522C80.6229 42.414 80.5269 42.324 80.4309 42.252C80.3469 42.18 80.2569 42.126 80.1609 42.09C80.0649 42.042 79.9509 42.012 79.8189 42C79.6989 41.976 79.5489 41.964 79.3689 41.964H78.5589V51H76.8309V24.81H78.5589Z" fill="#4A4D58"/>
</svg>
